<svg viewBox="0 0 286.5 36.02" xmlns="http://www.w3.org/2000/svg"><g opacity=".2"><g fill="none"><path d="m170.48 10.76a16.18 16.18 0 0 0 -1.54-2.49c-4.58-2-11.78-3.53-18.45 2.37-4.83 4.28-8.43 5.41-10.86 5.43a16 16 0 0 0 -.12 1.7c2.71 0 6.64-1.15 11.83-5.75 7.25-6.41 15.19-3.47 19.14-1.26z"/><path d="m221.27 13.82a1.38 1.38 0 0 0 -.83-.39 9.57 9.57 0 0 0 -1.51-.1h-2.48v5.52h2.4a8.76 8.76 0 0 0 1.55-.11 1.57 1.57 0 0 0 .84-.4 1.45 1.45 0 0 0 .36-.83 9 9 0 0 0 .09-1.42 13.17 13.17 0 0 0 -.07-1.43 1.42 1.42 0 0 0 -.35-.84z"/><path d="m154.08 25c-6.66-2.12-10.74-1.59-13.2-.45.23.52.48 1 .75 1.49 2.06-.9 5.81-1.48 12.23.57a16.13 16.13 0 0 0 8.32.53 18.26 18.26 0 0 0 9.69-6 15.48 15.48 0 0 0 .29-2.81c-2.68 3.61-8.78 9.67-18.08 6.67z"/><path d="m281 13.82a1.61 1.61 0 0 0 -.83-.38 8.89 8.89 0 0 0 -1.56-.11h-2.75v5h2.75a8.73 8.73 0 0 0 1.51-.1 1.56 1.56 0 0 0 .84-.37 1.42 1.42 0 0 0 .36-.77 8.73 8.73 0 0 0 .08-1.27 9.2 9.2 0 0 0 -.07-1.3 1.31 1.31 0 0 0 -.33-.7z"/><path d="m165.84 5.11a16.56 16.56 0 0 0 -4.84-2.59 15.55 15.55 0 0 0 -11.36 4.16c-3.69 3.26-6.66 4.69-8.94 5.2a15.16 15.16 0 0 0 -.62 1.83c2.6-.35 6.06-1.8 10.42-5.65a14.85 14.85 0 0 1 15.34-2.95z"/><path d="m158.92 11.54c-3.88.82-6.32 3.75-5.67 6.82s4.06 4.77 7.94 3.95 6.33-3.75 5.68-6.82-4.06-4.76-7.95-3.95zm2.08 9.22c-3.41.72-6.2-.75-6.57-2.52s1.58-4.25 5-5 6.19.75 6.57 2.52-1.63 4.24-5 5z"/><path d="m155 29.56c-5.43-1.73-9.15-1.7-11.67-1a15.36 15.36 0 0 0 1.41 1.44c2.22-.39 5.46-.28 10.08 1.2a16.13 16.13 0 0 0 8.32.53 15.17 15.17 0 0 0 2.86-.91 16.49 16.49 0 0 0 3.78-4.3 14.75 14.75 0 0 1 -14.78 3.04z"/></g><path d="m184 21.38c0 .89 0 1.59-.07 2.1a1.81 1.81 0 0 1 -.43 1.13 1.88 1.88 0 0 1 -1.14.45 21.41 21.41 0 0 1 -2.19.13v3.47c1.65 0 3 0 4.09-.11a7.72 7.72 0 0 0 2.54-.52 2.71 2.71 0 0 0 1.35-1.32 7.53 7.53 0 0 0 .54-2.51c.07-1.07.11-2.42.11-4.06v-10.45h-4.8z"/><path d="m203 21.14c0 .88 0 1.59-.07 2.13a2.94 2.94 0 0 1 -.33 1.23 1.24 1.24 0 0 1 -.84.54 8.33 8.33 0 0 1 -1.6.12 8.45 8.45 0 0 1 -1.61-.12 1.28 1.28 0 0 1 -.86-.54 2.94 2.94 0 0 1 -.33-1.23c0-.54-.07-1.25-.07-2.13v-11.45h-4.79v10.43q0 2.05.12 3.57a8.36 8.36 0 0 0 .54 2.51 3.49 3.49 0 0 0 1.24 1.58 5.53 5.53 0 0 0 2.23.84 24.09 24.09 0 0 0 7.06 0 5.53 5.53 0 0 0 2.23-.84 3.47 3.47 0 0 0 1.23-1.58 8.72 8.72 0 0 0 .52-2.51c.09-1 .13-2.2.13-3.57v-10.43h-4.8z"/><path d="m225.46 11.36a3.78 3.78 0 0 0 -1.73-1.24 8.64 8.64 0 0 0 -2.95-.43h-9.13v19h4.8v-6.2h4.24a8.33 8.33 0 0 0 3.06-.47 3.71 3.71 0 0 0 1.75-1.33 4.8 4.8 0 0 0 .8-2 14.65 14.65 0 0 0 .21-2.58 14.79 14.79 0 0 0 -.22-2.73 4.71 4.71 0 0 0 -.83-2.02zm-3.86 6.15a1.45 1.45 0 0 1 -.36.83 1.57 1.57 0 0 1 -.84.4 8.76 8.76 0 0 1 -1.55.11h-2.4v-5.52h2.48a9.57 9.57 0 0 1 1.51.1 1.38 1.38 0 0 1 .83.39 1.42 1.42 0 0 1 .35.84 13.17 13.17 0 0 1 .07 1.43 9 9 0 0 1 -.09 1.42z"/><path d="m229.38 9.69h4.8v18.97h-4.8z"/><path d="m236.66 13.55h5.18v15.11h4.8v-15.11h5.21v-3.86h-15.19z"/><path d="m254.3 28.66h13.29v-3.69h-8.49v-4.05h7.2v-3.64h-7.2v-3.89h8.49v-3.7h-13.29z"/><path d="m283.64 21.33a3.39 3.39 0 0 0 1.64-1.33 5.26 5.26 0 0 0 .7-2 15.09 15.09 0 0 0 0-4.77 4.56 4.56 0 0 0 -.8-1.93 3.63 3.63 0 0 0 -1.74-1.19 9.43 9.43 0 0 0 -3-.4h-9.44v19h4.8v-6.77h3.33l2.37 6.73h5zm-2.37-4.19a1.42 1.42 0 0 1 -.36.77 1.56 1.56 0 0 1 -.84.37 8.73 8.73 0 0 1 -1.51.1h-2.75v-5h2.75a8.89 8.89 0 0 1 1.56.11 1.61 1.61 0 0 1 .83.38 1.31 1.31 0 0 1 .33.75 9.2 9.2 0 0 1 .07 1.3 8.73 8.73 0 0 1 -.08 1.22z"/><path d="m159.39 13.28c-3.41.71-5.37 3.19-5 5s3.16 3.24 6.57 2.52 5.36-3.19 5-5-3.17-3.24-6.57-2.52z"/><path d="m152.12.39a18 18 0 1 0 21.34 13.9 18 18 0 0 0 -21.34-13.9zm-11.41 11.49c2.28-.51 5.25-1.94 8.94-5.2a15.55 15.55 0 0 1 11.35-4.16 16.56 16.56 0 0 1 4.83 2.59 14.85 14.85 0 0 0 -15.33 3c-4.36 3.85-7.82 5.3-10.42 5.65a15.16 15.16 0 0 1 .63-1.88zm-1.08 4.19c2.43 0 6-1.15 10.86-5.43 6.67-5.9 13.87-4.41 18.45-2.37a16.18 16.18 0 0 1 1.54 2.49c-3.95-2.21-11.89-5.15-19.14 1.26-5.19 4.6-9.12 5.78-11.83 5.75a16 16 0 0 1 .12-1.7zm21.56 6.24c-3.88.82-7.29-.88-7.94-3.95s1.79-6 5.67-6.82 7.3.88 8 4-1.84 5.95-5.73 6.77zm4.81 8.48a15.17 15.17 0 0 1 -2.86.91 16.13 16.13 0 0 1 -8.32-.53c-4.62-1.48-7.86-1.59-10.08-1.2a15.36 15.36 0 0 1 -1.37-1.42c2.52-.69 6.24-.72 11.67 1a14.75 14.75 0 0 0 14.74-3.07 16.49 16.49 0 0 1 -3.78 4.31zm5.87-9.64a18.26 18.26 0 0 1 -9.69 6 16.13 16.13 0 0 1 -8.32-.53c-6.42-2.05-10.17-1.47-12.23-.57-.27-.48-.52-1-.75-1.49 2.46-1.14 6.54-1.67 13.2.45 9.3 3 15.4-3.07 18.08-6.67a15.48 15.48 0 0 1 -.29 2.81z"/><path d="m0 8.7a27.92 27.92 0 0 1 4.48-.35 7.39 7.39 0 0 1 5.07 1.51 4.84 4.84 0 0 1 1.59 3.78 5.31 5.31 0 0 1 -1.4 3.86 7.47 7.47 0 0 1 -5.53 2 8.2 8.2 0 0 1 -1.87-.16v7.24h-2.34zm2.34 8.72a7.47 7.47 0 0 0 1.93.19c2.82 0 4.53-1.37 4.53-3.86s-1.69-3.54-4.26-3.54a10.38 10.38 0 0 0 -2.2.18z"/><path d="m25.28 20c0 4.81-3.32 6.9-6.46 6.9-3.52 0-6.23-2.58-6.23-6.68 0-4.35 2.85-6.9 6.44-6.9s6.25 2.68 6.25 6.68zm-10.28.11c0 2.84 1.64 5 3.94 5s3.95-2.12 3.95-5.05c0-2.2-1.1-5-3.89-5s-4 2.58-4 5.05z"/><path d="m29 13.59 1.72 6.6c.37 1.45.72 2.79 1 4.13h.07c.3-1.31.73-2.71 1.16-4.11l2.12-6.62h2l2 6.49c.48 1.56.86 2.93 1.15 4.24h.08a40.41 40.41 0 0 1 1-4.21l1.85-6.52h2.34l-4.19 13h-2.16l-2-6.19a41.82 41.82 0 0 1 -1.14-4.29h-.06a36.66 36.66 0 0 1 -1.18 4.29l-2.09 6.17h-2.15l-3.91-13z"/><path d="m48.89 20.51c.05 3.19 2.11 4.49 4.45 4.49a8.67 8.67 0 0 0 3.6-.67l.4 1.69a10.65 10.65 0 0 1 -4.32.8c-4 0-6.39-2.63-6.39-6.55s2.31-7 6.09-7c4.24 0 5.37 3.73 5.37 6.12a8.35 8.35 0 0 1 -.08 1.1zm6.92-1.69c0-1.5-.62-3.84-3.27-3.84-2.39 0-3.44 2.2-3.63 3.84z"/><path d="m61 17.64c0-1.53 0-2.84-.11-4.05h2.11l.08 2.55h.11a3.89 3.89 0 0 1 3.59-2.85 2.67 2.67 0 0 1 .67.08v2.23a3.18 3.18 0 0 0 -.8-.08 3.32 3.32 0 0 0 -3.17 3 7.12 7.12 0 0 0 -.1 1.1v6.92h-2.38z"/><path d="m70.85 20.51c.05 3.19 2.09 4.49 4.45 4.49a8.67 8.67 0 0 0 3.6-.67l.4 1.67a10.61 10.61 0 0 1 -4.32.8c-4 0-6.39-2.63-6.39-6.55s2.31-7 6.1-7c4.23 0 5.36 3.73 5.36 6.12a8.35 8.35 0 0 1 -.08 1.1zm6.92-1.69c0-1.5-.62-3.84-3.27-3.84-2.39 0-3.44 2.2-3.62 3.84z"/><path d="m94.2 7.52v15.7c0 1.15 0 2.47.1 3.35h-2.11l-.11-2.25h-.08a4.79 4.79 0 0 1 -4.42 2.55c-3.14 0-5.56-2.66-5.56-6.6 0-4.32 2.66-7 5.83-7a4.33 4.33 0 0 1 3.91 2h.06v-7.75zm-2.36 11.35a4.23 4.23 0 0 0 -.11-1 3.48 3.48 0 0 0 -3.41-2.74c-2.44 0-3.89 2.15-3.89 5 0 2.63 1.29 4.8 3.84 4.8a3.55 3.55 0 0 0 3.46-2.81 4.2 4.2 0 0 0 .11-1z"/><path d="m103.71 26.57c.05-.88.1-2.2.1-3.35v-15.7h2.34v8.16a4.84 4.84 0 0 1 4.43-2.39c3.22 0 5.5 2.69 5.47 6.63 0 4.64-2.92 7-5.82 7a4.64 4.64 0 0 1 -4.35-2.44h-.08l-.1 2.14zm2.44-5.2a4 4 0 0 0 .11.86 3.64 3.64 0 0 0 3.54 2.77c2.47 0 3.94-2 3.94-5 0-2.6-1.34-4.83-3.86-4.83a3.77 3.77 0 0 0 -3.6 2.9 5 5 0 0 0 -.13 1z"/><path d="m119.76 13.59 2.84 7.67c.3.86.62 1.88.84 2.66.24-.78.51-1.77.83-2.71l2.58-7.62h2.49l-3.54 9.25c-1.64 4.46-2.8 6.74-4.4 8.16a6.36 6.36 0 0 1 -2.9 1.53l-.59-2a6.36 6.36 0 0 0 2.09-1.17 7.26 7.26 0 0 0 2-2.62 1.76 1.76 0 0 0 .19-.57 2.4 2.4 0 0 0 -.16-.62l-4.8-12z"/></g></svg>